<?xml version="1.0" standalone="no"?>
<svg version="1.0" xmlns="http://www.w3.org/2000/svg"
 width="1536" height="1024" viewBox="0 0 1536 1024"
 preserveAspectRatio="xMidYMid meet">
<defs>
  <filter id="softShadow" x="-20%" y="-20%" width="140%" height="140%">
    <feDropShadow dx="2" dy="4" stdDeviation="8" flood-color="#000000" flood-opacity="0.25"/>
  </filter>
</defs>
<g transform="translate(0.000000,1024.000000) scale(0.100000,-0.100000)"
fill="#5d8bbb" stroke="none" filter="url(#softShadow)">
<path d="M6330 7099 c-85 -1 -187 -5 -227 -10 -39 -5 -116 -17 -171 -29 -55
-11 -140 -33 -189 -49 -49 -16 -128 -47 -177 -69 -88 -40 -88 -40 20 -113 60
-41 152 -108 204 -150 52 -42 147 -123 210 -180 63 -58 178 -175 255 -260 77
-85 282 -321 455 -524 173 -203 329 -386 345 -406 17 -20 138 -164 269 -320
132 -156 293 -344 359 -417 66 -73 155 -164 199 -203 44 -39 123 -103 176
-142 53 -40 141 -98 194 -130 53 -32 137 -76 185 -99 48 -22 140 -58 203 -79
63 -21 162 -48 220 -60 86 -18 137 -22 280 -23 124 0 204 6 275 18 55 10 136
29 180 43 44 14 107 36 140 50 33 14 95 45 138 70 42 25 77 48 76 51 0 4 -27
20 -60 37 -34 16 -120 67 -192 113 -73 46 -184 126 -247 177 -63 51 -161 137
-218 189 -57 53 -154 149 -215 214 -62 65 -157 170 -213 233 -55 63 -152 177
-215 254 -63 77 -230 286 -370 465 -141 179 -318 408 -394 509 -76 101 -171
223 -211 271 -40 48 -111 118 -156 157 -46 38 -105 85 -133 104 -27 20 -88 59
-135 86 -47 28 -112 63 -145 78 -33 15 -98 40 -145 56 -47 16 -122 38 -166 49
-45 10 -119 24 -165 30 -46 5 -153 9 -239 9z"/>
<path d="M9150 7085 c-81 2 -185 -1 -260 -10 -69 -8 -165 -24 -215 -36 -49
-11 -133 -37 -185 -56 -52 -20 -131 -53 -175 -75 -44 -22 -118 -65 -165 -96
-47 -31 -131 -101 -187 -156 -57 -54 -103 -103 -103 -108 0 -5 45 -67 101
-136 55 -70 137 -174 182 -232 45 -58 124 -157 176 -220 52 -63 145 -167 207
-230 112 -114 112 -114 182 -57 39 32 115 104 169 160 54 57 139 156 188 221
50 65 142 182 205 259 63 78 189 217 279 310 91 93 201 199 244 235 78 65 78
65 5 94 -40 15 -118 42 -173 58 -55 17 -154 40 -220 51 -66 11 -181 22 -255
24z"/>
<path d="M4535 6959 c-44 -1 -122 -7 -172 -15 -51 -7 -140 -29 -199 -49 -58
-19 -151 -58 -205 -86 -55 -28 -132 -76 -172 -107 -40 -30 -94 -76 -120 -101
-27 -25 -75 -77 -106 -116 -32 -38 -76 -100 -99 -136 -23 -36 -52 -90 -65
-120 -14 -30 -27 -64 -31 -76 -7 -21 -2 -20 71 17 43 22 117 50 166 64 48 14
124 30 169 36 46 5 108 10 138 10 31 0 99 -7 151 -16 52 -9 126 -28 164 -41
39 -14 113 -48 166 -75 54 -28 137 -80 185 -116 49 -37 184 -159 299 -273 116
-113 228 -222 250 -241 22 -19 67 -55 100 -80 34 -25 120 -84 191 -131 72 -48
171 -106 220 -130 49 -24 119 -56 157 -71 37 -15 104 -36 148 -47 81 -20 81
-20 117 7 21 15 89 79 152 143 63 65 153 166 200 225 47 59 91 118 99 131 13
21 12 26 -30 73 -24 27 -105 116 -179 198 -74 82 -207 225 -296 319 -89 93
-213 221 -277 282 -64 62 -158 143 -209 181 -51 37 -122 86 -158 109 -36 22
-88 52 -117 66 -28 15 -86 40 -129 57 -42 17 -115 42 -163 56 -47 14 -142 31
-211 39 -69 8 -161 15 -205 14z"/>
<path d="M10800 6955 c-96 3 -174 0 -231 -10 -48 -7 -114 -21 -147 -30 -34 -8
-103 -32 -154 -53 -51 -21 -126 -58 -166 -81 -41 -24 -118 -76 -172 -117 -54
-41 -139 -115 -188 -164 -50 -49 -131 -141 -181 -205 -83 -105 -89 -115 -68
-119 12 -3 54 -12 92 -20 39 -8 102 -26 140 -40 39 -13 100 -37 136 -54 36
-16 108 -55 159 -86 51 -32 136 -90 189 -131 53 -40 125 -99 160 -131 64 -58
64 -58 124 11 33 39 106 116 162 171 56 56 139 130 185 164 46 34 134 86 194
115 61 29 145 61 186 72 58 14 113 18 240 18 140 0 178 -4 250 -23 47 -13 127
-41 178 -62 57 -23 92 -33 92 -26 0 7 -20 51 -43 97 -24 47 -63 114 -87 150
-24 35 -84 105 -132 155 -49 51 -128 120 -176 154 -48 34 -125 81 -172 105
-47 23 -124 56 -172 73 -48 17 -124 38 -170 47 -46 9 -148 18 -228 20z"/>
<path d="M3934 6084 c-56 3 -119 0 -170 -9 -45 -8 -113 -26 -150 -40 -38 -14
-100 -46 -139 -70 -38 -24 -98 -69 -133 -100 -34 -32 -83 -86 -107 -120 -25
-35 -62 -98 -81 -141 -28 -59 -35 -85 -31 -111 3 -19 22 -67 42 -106 19 -40
57 -102 85 -139 27 -37 79 -92 116 -122 37 -31 101 -73 143 -95 42 -21 110
-50 151 -63 64 -20 94 -23 210 -22 115 1 148 5 223 28 48 14 118 41 155 60 37
19 104 61 147 93 44 33 114 96 156 140 41 44 103 121 137 171 62 90 62 90 2
174 -33 45 -90 117 -128 158 -38 41 -109 104 -158 139 -49 35 -122 79 -162 97
-40 19 -106 43 -146 53 -40 11 -113 22 -162 25z"/>
<path d="M11451 6079 c-47 -1 -95 -3 -106 -5 -11 -3 -49 -12 -85 -21 -36 -9
-94 -29 -129 -45 -36 -16 -94 -50 -130 -75 -36 -26 -92 -72 -125 -103 -32 -30
-86 -91 -121 -135 -34 -44 -75 -103 -90 -131 -29 -52 -29 -52 25 -135 34 -52
98 -128 170 -199 83 -83 137 -128 195 -161 44 -25 105 -55 135 -67 30 -12 83
-28 118 -37 34 -9 97 -18 140 -21 51 -4 109 -1 170 10 52 9 127 29 167 45 40
15 104 49 142 74 39 26 102 80 140 121 39 40 89 105 111 142 22 38 48 91 57
117 17 45 17 52 2 100 -9 29 -34 81 -54 117 -22 38 -78 105 -133 160 -58 58
-122 111 -165 136 -38 22 -95 50 -126 62 -31 11 -93 28 -139 36 -45 9 -121 15
-169 15z"/>
<path d="M9337 5979 c-7 0 -21 -4 -33 -9 -11 -4 -51 -39 -89 -76 -37 -38 -136
-147 -219 -243 -83 -95 -166 -191 -184 -212 -33 -39 -33 -39 -15 -63 10 -13
124 -138 254 -277 130 -140 315 -331 410 -425 96 -93 208 -198 250 -231 42
-34 119 -91 173 -127 53 -37 136 -86 184 -110 48 -24 130 -59 182 -80 52 -20
139 -47 192 -61 54 -13 137 -29 185 -36 55 -7 149 -9 253 -6 91 3 196 13 234
22 38 8 110 29 160 46 50 17 128 50 173 75 45 24 117 71 160 103 43 32 116 98
163 147 47 49 106 118 131 154 25 36 64 99 86 140 22 41 50 103 63 138 12 34
20 65 18 68 -3 3 -32 -11 -64 -29 -33 -19 -102 -51 -154 -70 -52 -20 -135 -43
-185 -52 -68 -13 -122 -16 -220 -12 -101 4 -150 11 -219 31 -50 15 -136 50
-191 77 -56 28 -151 87 -211 132 -67 49 -195 166 -329 298 -121 120 -265 256
-321 302 -56 46 -146 113 -200 149 -54 36 -135 83 -179 106 -44 22 -127 56
-185 75 -58 20 -140 41 -183 46 -43 6 -84 11 -90 10z"/>
<path d="M6727 5338 c-64 63 -64 63 -114 10 -28 -29 -64 -69 -80 -88 -16 -19
-58 -71 -94 -115 -35 -44 -76 -96 -91 -115 -15 -19 -73 -94 -130 -166 -57 -73
-142 -176 -189 -230 -48 -55 -133 -144 -190 -199 -57 -55 -136 -127 -175 -160
-39 -33 -98 -81 -130 -106 -33 -26 -101 -74 -153 -107 -93 -60 -93 -60 -8
-106 47 -26 117 -58 156 -71 38 -14 109 -36 157 -50 47 -14 138 -32 201 -40
63 -8 180 -15 261 -15 81 0 192 7 247 15 55 8 144 25 197 39 54 14 144 43 200
66 57 22 139 61 183 87 44 25 121 76 170 113 50 37 135 112 191 168 55 55 113
119 129 141 28 41 28 41 -26 105 -30 35 -139 167 -244 292 -104 125 -238 281
-297 348 -58 66 -135 149 -171 184z"/>
<path d="M4959 5380 c-3 0 -30 -33 -60 -72 -30 -40 -94 -114 -144 -163 -49
-50 -130 -121 -180 -158 -49 -37 -144 -94 -210 -127 -66 -33 -156 -68 -200
-79 -44 -11 -122 -25 -173 -31 -64 -7 -125 -7 -195 0 -56 5 -124 16 -152 24
-27 7 -80 25 -116 39 -36 13 -85 35 -110 47 -24 12 -52 29 -62 38 -9 8 -20 13
-23 9 -3 -3 1 -31 10 -61 9 -31 37 -95 61 -144 25 -48 74 -126 109 -172 35
-47 100 -119 143 -161 44 -42 115 -100 158 -129 43 -29 124 -74 179 -101 57
-27 154 -62 221 -80 101 -26 144 -32 270 -36 111 -4 176 -1 250 11 55 9 152
34 216 56 64 21 153 57 198 79 44 23 131 75 193 117 61 41 152 110 202 154 50
43 132 120 181 171 50 52 112 119 138 150 26 31 47 59 47 62 0 3 -15 9 -32 12
-18 4 -82 27 -142 51 -60 25 -141 63 -180 86 -39 23 -114 68 -166 102 -52 33
-151 103 -219 155 -69 53 -143 108 -165 123 -23 16 -44 28 -47 28z"/>
</g>
<g transform="translate(0.000000,1024.000000) scale(0.100000,-0.100000)"
fill="#5d8bbb" stroke="none">
<path d="M6287 7109 c-7 -1 -52 -5 -102 -10 -49 -5 -135 -16 -190 -25 -55 -9
-145 -30 -200 -46 -55 -16 -148 -50 -207 -75 -60 -25 -108 -49 -107 -52 0 -3
39 -32 87 -63 48 -31 123 -83 167 -116 44 -33 146 -119 227 -191 81 -72 210
-201 288 -287 77 -86 281 -321 453 -522 172 -201 339 -398 372 -437 33 -39
115 -136 181 -215 67 -80 161 -192 210 -250 48 -58 138 -161 200 -230 62 -69
136 -148 165 -176 30 -28 95 -84 144 -125 50 -40 137 -104 195 -142 58 -38
164 -97 235 -132 72 -35 180 -79 240 -99 61 -19 157 -45 215 -56 58 -12 161
-24 230 -27 71 -3 166 0 220 6 52 7 127 19 167 27 40 8 105 25 145 38 40 13
102 37 138 53 36 17 96 48 134 71 69 40 69 40 6 72 -35 18 -111 61 -169 97
-58 36 -128 82 -156 102 -27 20 -115 90 -195 157 -80 67 -219 197 -310 290
-91 93 -231 246 -311 339 -80 94 -220 263 -310 376 -90 113 -204 257 -254 320
-49 63 -165 213 -258 334 -92 121 -202 265 -245 320 -42 55 -113 136 -157 180
-44 44 -107 101 -141 127 -33 25 -105 74 -159 108 -54 35 -135 79 -180 100
-46 21 -123 52 -171 68 -49 17 -132 39 -184 50 -52 12 -164 26 -248 31 -85 6
-159 10 -165 10z"/>
<path d="M10795 6956 c-128 3 -181 0 -267 -16 -59 -11 -155 -37 -214 -59 -58
-22 -143 -60 -188 -85 -45 -25 -129 -80 -186 -123 -58 -43 -148 -120 -201
-173 -52 -52 -133 -144 -180 -204 -46 -60 -84 -111 -84 -114 0 -3 41 -13 92
-23 50 -11 129 -33 174 -49 45 -17 126 -53 181 -81 54 -28 147 -85 207 -128
60 -42 153 -114 207 -160 98 -85 98 -85 168 -5 38 43 113 122 166 174 53 52
137 124 186 158 49 35 130 84 179 108 50 24 126 53 170 66 67 18 107 22 245
22 142 1 177 -3 254 -23 50 -13 132 -40 183 -61 70 -29 93 -35 93 -24 0 8 -16
47 -36 87 -20 39 -56 102 -81 139 -24 36 -68 93 -97 127 -29 33 -83 87 -119
119 -37 33 -97 80 -134 105 -38 25 -108 65 -158 90 -49 24 -124 56 -165 70
-41 14 -111 33 -155 42 -48 10 -143 19 -240 21z"/>
<path d="M5000 5357 c-45 30 -45 30 -94 -38 -27 -38 -101 -119 -165 -181 -64
-63 -145 -135 -180 -161 -35 -26 -101 -68 -146 -93 -46 -25 -119 -58 -163 -74
-43 -16 -116 -36 -162 -44 -48 -9 -135 -16 -209 -16 -70 0 -156 7 -193 15 -37
7 -109 30 -160 51 -51 20 -115 50 -142 66 -26 16 -51 27 -54 23 -3 -3 2 -31
12 -63 10 -31 37 -94 61 -139 24 -45 61 -108 82 -140 21 -32 79 -101 129 -153
51 -52 127 -121 170 -152 44 -31 124 -79 179 -106 55 -27 137 -61 181 -75 45
-14 121 -33 170 -43 70 -13 125 -15 254 -11 131 4 185 10 265 30 55 14 130 37
168 51 37 14 103 44 147 66 44 22 106 57 137 77 32 20 99 67 150 104 50 37
152 127 227 199 74 72 161 163 192 201 31 38 55 71 53 73 -2 2 -42 16 -88 31
-46 15 -138 55 -205 89 -67 34 -168 92 -226 130 -58 38 -159 110 -225 160 -66
51 -140 106 -165 123z"/>
</g>
</svg>
